<svg width="40" height="34" viewBox="0 0 40 34" fill="none" xmlns="http://www.w3.org/2000/svg">
<path d="M33.8807 11.4498C34.157 12.1602 34.4859 13.0547 34.0781 13.7783C33.644 14.5281 32.6179 14.8701 31.9338 15.3306C31.9206 15.3306 31.8943 15.3569 31.8812 15.3569C31.4339 13.5941 30.9209 11.8445 30.342 10.108C30.9866 10.0422 31.6444 9.96331 32.3021 9.95016C32.6179 9.95016 32.9073 9.937 33.1572 10.1606C33.5124 10.5158 33.7097 10.9763 33.8807 11.4498Z" fill="white"/>
<path d="M31.6838 14.6465C31.7496 14.8832 31.8154 15.1332 31.868 15.37C31.8812 15.3568 31.9075 15.3437 31.9206 15.3437C32.6047 14.8832 33.6308 14.5412 34.0649 13.7914C34.4201 13.1731 34.2359 12.4496 33.9991 11.7918C33.8281 13.2783 32.6442 14.1597 31.6838 14.6465Z" fill="#E6E6E6"/>
<path d="M12.4509 31.5771C11.8063 31.9585 11.1617 32.4058 10.4908 32.7478C10.1093 32.9452 9.59625 33.1425 9.21475 32.8399C9.00427 32.6689 8.84641 32.3927 8.68855 32.169C7.92556 31.064 7.3862 29.8669 6.80738 28.6566C6.11016 27.2359 5.58396 25.7757 5.12354 24.2628C6.72845 23.9866 8.32021 23.6446 9.89882 23.2631C10.5039 24.8417 11.188 26.3808 12.1483 27.7884C12.372 28.1173 12.6088 28.4461 12.8455 28.7619C13.1218 29.1171 13.5559 29.4591 13.7138 29.8932C14.0032 30.722 13.0166 31.235 12.4509 31.5771Z" fill="white"/>
<path d="M31.3813 25.4995C31.2629 25.4732 31.1445 25.4337 31.0392 25.4074C29.7237 25.0785 28.4345 24.7102 27.1322 24.3418C24.9879 23.7235 22.8436 23.0789 20.6467 22.7106C18.2262 22.3028 15.7794 22.2633 13.3325 22.487C12.7274 22.5396 12.1223 22.6185 11.5171 22.6974C10.6094 19.6192 9.7149 16.5409 8.9519 13.4363C13.4246 11.4499 17.1475 7.9901 20.5283 4.53032C21.1335 3.91204 21.7386 3.26744 22.3437 2.64915C22.7252 2.2545 23.1067 1.873 23.5277 1.53097C23.6856 1.39942 23.8566 1.28103 24.0276 1.14948C24.7511 2.28081 25.2379 3.60947 25.7377 4.84604C26.4086 6.52989 27.0401 8.22689 27.6452 9.93705C28.0399 11.0684 28.4608 12.2129 28.7897 13.3705C29.3291 15.2385 29.7763 17.1329 30.1973 19.014C30.6709 21.132 31.1708 23.3026 31.3813 25.4995Z" fill="white"/>
<path d="M4.88698 18.0142C5.13693 17.9221 6.71553 17.317 6.54452 18.1195C6.4919 18.3826 6.21564 18.5141 5.99201 18.6062C5.5842 18.7641 5.16324 18.8956 4.75543 19.014C4.42656 19.1192 3.20314 19.606 3.26891 18.8561C3.29522 18.6062 3.45308 18.501 3.67672 18.422C4.05821 18.251 4.47918 18.1458 4.88698 18.0142Z" fill="black"/>
<path d="M4.20298 16.4882C4.61079 16.3567 5.71581 15.8305 6.08415 16.2909C6.51827 16.8171 5.07121 17.2117 4.80811 17.2907C4.43977 17.3959 4.07143 17.5012 3.70309 17.5801C3.53207 17.6195 3.32159 17.6985 3.13742 17.6722C2.80855 17.6195 2.74277 17.2775 2.9401 17.0539C3.22951 16.7118 3.80833 16.5935 4.20298 16.4882Z" fill="black"/>
<path d="M33.1042 22.829C33.17 23.3815 33.2621 23.9472 33.17 24.5129C33.1042 24.9075 32.9595 25.3153 32.578 25.4995C32.2755 25.6442 31.9334 25.6179 31.6046 25.5521C31.4204 23.6578 31.0257 21.7766 30.6179 19.9218C30.1707 17.8696 29.6839 15.8174 29.1314 13.7915C28.8157 12.647 28.421 11.5288 28.0395 10.4107C27.4476 8.70051 26.8161 7.00351 26.1584 5.30651C25.5927 3.85946 25.0533 2.32031 24.2114 1.00481C24.5535 0.79433 24.9086 0.636469 25.2901 0.610159C26.04 0.557539 26.3952 1.2416 26.7109 1.80727C27.0529 2.42556 27.3555 3.07015 27.6449 3.71475C29.5524 7.97698 30.9994 12.5023 32.065 17.054C32.3544 18.3037 32.6175 19.5666 32.828 20.8295C32.9332 21.5004 33.0122 22.1581 33.1042 22.829Z" fill="#FF7480"/>
<path d="M11.2932 22.7106C11.2669 22.7106 11.2406 22.7238 11.2011 22.7238C11.188 22.7238 11.188 22.7238 11.1748 22.7238C11.1617 22.7238 11.1617 22.7238 11.1485 22.7238C9.50413 23.1579 7.8466 23.5394 6.1759 23.8551C5.7681 23.934 5.36029 24.013 4.95249 24.0787C4.51837 24.1577 3.84746 24.4076 3.46597 24.0787C2.93976 23.6052 2.5188 22.9342 2.16362 22.3291C1.38747 21.0136 0.874421 19.5402 0.703406 18.0274C0.624475 17.3434 0.45346 16.3041 0.966507 15.7516C1.47955 15.2122 2.42672 15.0938 3.11078 14.9097C4.9788 14.3966 6.84681 13.923 8.72798 13.4758C9.50413 16.5804 10.3855 19.6455 11.2932 22.7106ZM6.54425 18.1195C6.70211 17.317 5.13666 17.9353 4.88671 18.0143C4.4789 18.1458 4.05794 18.2511 3.67645 18.4089C3.45281 18.501 3.29495 18.5931 3.26864 18.843C3.20286 19.606 4.42628 19.1061 4.75516 19.0009C5.16297 18.8825 5.59708 18.7509 5.99173 18.5931C6.21537 18.501 6.49163 18.3826 6.54425 18.1195ZM4.80778 17.2776C5.07088 17.1986 6.50478 16.8172 6.08382 16.2778C5.70232 15.8174 4.61045 16.3436 4.20265 16.4751C3.808 16.5804 3.22917 16.6988 2.95292 17.0276C2.75559 17.2513 2.82137 17.6065 3.15024 17.6459C3.32126 17.6722 3.5449 17.5933 3.71591 17.5538C4.0711 17.4881 4.45259 17.396 4.80778 17.2776Z" fill="#5DDEF5"/>
<path d="M39.5244 11.6735C39.1034 11.6209 38.6693 11.5814 38.2615 11.5551L38.1299 11.5419C37.9458 11.5288 37.7616 11.5156 37.5906 11.5025C37.4459 11.4893 37.3143 11.5288 37.2091 11.6209C37.1038 11.7129 37.0249 11.8313 37.0117 11.976C36.9986 12.1208 37.0381 12.2655 37.1301 12.3707C37.2222 12.4759 37.3538 12.5549 37.4985 12.568C37.7353 12.5943 37.9589 12.6075 38.2615 12.6338C38.643 12.6601 39.0376 12.6996 39.4191 12.739H39.4849C39.748 12.739 39.9585 12.5549 39.9979 12.2918C40.0242 11.9892 39.8138 11.7129 39.5244 11.6735Z" fill="black"/>
<path d="M36.2617 8.924C36.3144 8.93716 36.3538 8.93716 36.4065 8.93716C36.5512 8.93716 36.6696 8.88454 36.7748 8.79245L38.2218 7.38486C38.3534 7.25331 38.4192 7.06914 38.3666 6.88497C38.3271 6.7008 38.1692 6.54294 37.9851 6.49032C37.8009 6.4377 37.6036 6.49032 37.472 6.62187L36.025 8.02946C35.8934 8.16101 35.8408 8.34518 35.8802 8.52935C35.9329 8.72668 36.0776 8.87138 36.2617 8.924Z" fill="black"/>
<path d="M36.0906 15.4885C35.8539 15.2911 35.525 15.3306 35.3276 15.5674C35.2356 15.6726 35.1961 15.8173 35.2093 15.9489C35.2224 16.0804 35.2882 16.212 35.3934 16.3041C35.8539 16.6856 36.3406 17.1328 36.9326 17.738C37.0378 17.8432 37.1694 17.8958 37.3404 17.8958C37.4588 17.8827 37.5903 17.8301 37.6824 17.7511C37.7745 17.659 37.8403 17.5407 37.8534 17.4091C37.8666 17.2512 37.814 17.1065 37.7087 17.0013C37.0904 16.3699 36.5905 15.8963 36.0906 15.4885Z" fill="black"/>
<path d="M32.8018 7.35862C32.8807 7.35862 32.9728 7.34547 33.0518 7.306C33.2228 7.21392 33.328 7.05606 33.3412 6.85873C33.3675 6.49039 33.3938 6.10889 33.4069 5.74055L33.4201 5.59585C33.4464 5.2012 33.4727 4.79339 33.499 4.38558C33.5122 4.24088 33.4596 4.10933 33.3675 4.00409C33.2754 3.89885 33.1438 3.84623 33.0123 3.83307C32.7229 3.81992 32.4598 4.04355 32.4466 4.33296C32.4203 4.75392 32.394 5.17489 32.3677 5.58269L32.3545 5.78002C32.3282 6.12205 32.3151 6.47724 32.2888 6.81927C32.2756 7.00344 32.3545 7.18761 32.5124 7.27969C32.5782 7.31916 32.6834 7.35862 32.8018 7.35862Z" fill="black"/>
<path d="M34.4858 11.2262C34.249 10.5947 33.8018 9.4108 32.6704 9.33186C32.039 9.27924 31.4075 9.35818 30.8419 9.42395L30.5525 9.45026C29.9868 7.79272 29.3553 6.12203 28.6713 4.50396C28.6055 4.35926 28.5529 4.21455 28.4871 4.05669C28.0135 2.89905 27.5136 1.71509 26.7638 0.702155C26.1324 -0.139768 25.0668 -0.231853 23.8828 0.465364C23.0015 0.991566 22.3042 1.72825 21.6202 2.43862L21.4229 2.6491C17.8052 6.41144 14.477 9.70021 10.3332 12.0023C9.78064 12.3049 9.20182 12.5943 8.67562 12.8311C6.75498 13.2915 4.83434 13.7783 2.96633 14.2913C2.84793 14.3308 2.71638 14.3571 2.53221 14.3966C1.90077 14.5544 1.19039 14.7254 0.664193 15.1727C-0.0724896 15.8041 -0.0198694 16.7645 0.0195957 17.4617C0.111681 19.0666 0.572108 20.6715 1.32195 22.1186C1.70344 22.8553 2.17702 23.5525 2.75585 24.2365C2.95317 24.4602 3.20312 24.7759 3.63723 24.868C3.95295 24.9337 4.29499 24.8811 4.62386 24.8022C5.12375 26.394 5.59734 27.6174 6.14985 28.7487L6.43926 29.3407C6.96546 30.4457 7.50482 31.577 8.2415 32.6163C8.55722 33.0636 8.96503 33.6292 9.72802 33.6292C9.80695 33.6292 9.88588 33.6292 9.97797 33.6029C10.662 33.4977 11.2408 33.1162 11.8197 32.7215C12.0038 32.59 12.188 32.4716 12.3722 32.3664L12.6353 32.2216C13.201 31.9059 13.8455 31.5507 14.2007 30.9719C14.7664 30.0116 14.0692 29.2223 13.6219 28.7092L13.5693 28.6566C12.2143 27.1043 11.3461 25.21 10.6883 23.5262C10.9251 23.4604 11.1356 23.4078 11.3329 23.3551C14.3849 22.9342 17.0291 22.8684 19.4496 23.171C21.8175 23.4735 24.146 24.1444 26.2508 24.7496C27.5136 25.1179 28.816 25.4863 30.1052 25.8283C30.2499 25.8678 30.3814 25.9072 30.5393 25.9467C31.0129 26.0914 31.5128 26.2361 32.0258 26.2493C32.5257 26.2361 32.9335 26.1177 33.2492 25.8283C34.0517 25.0653 33.8938 23.8419 33.7886 22.9473L33.7754 22.8816C33.6439 21.8292 33.4466 20.4479 33.1703 19.0271C32.9598 17.9353 32.7099 16.8566 32.4468 15.791C32.6046 15.6989 32.7757 15.5937 32.9598 15.5016C33.6307 15.1332 34.3411 14.7386 34.7094 14.0282C35.1699 13.0547 34.7621 11.9629 34.4858 11.2262ZM12.3459 31.1429L12.4774 31.3666L12.2933 31.1692L12.2275 31.2087C12.0038 31.3403 11.7934 31.485 11.5434 31.6428C11.1356 31.8928 10.7278 32.169 10.3068 32.3795C9.70171 32.6821 9.54385 32.5637 9.49123 32.5111C9.37283 32.4058 9.25444 32.2348 9.13604 32.0769C9.09658 32.0243 9.07027 31.9717 9.04396 31.9322C8.42567 31.0377 7.96524 30.0905 7.47851 29.0644L7.1891 28.4725C6.63658 27.3411 6.14985 26.1045 5.67627 24.6049C6.99177 24.3681 8.32043 24.0918 9.63593 23.7761C10.0964 24.9469 10.7936 26.565 11.7934 28.0383C12.0433 28.4067 12.2801 28.7356 12.5037 29.0381C12.609 29.1697 12.7274 29.2881 12.8326 29.4196C13.0299 29.6301 13.2273 29.8406 13.3062 30.0511C13.4377 30.4194 13.0694 30.722 12.3459 31.1429ZM33.7097 13.5678C33.4597 13.9888 32.9204 14.2913 32.4073 14.5676C32.3152 14.6202 32.2363 14.6597 32.1574 14.7123C31.789 13.3047 31.3681 11.8971 30.9208 10.4895H30.9471C31.3944 10.4369 31.868 10.3974 32.3547 10.3843C32.631 10.3711 32.7625 10.3843 32.8677 10.4764C33.1835 10.7658 33.3676 11.1999 33.5123 11.5945C33.7228 12.2391 34.0254 13.0153 33.7097 13.5678ZM26.3428 2.01766C26.698 2.66226 27.0006 3.33316 27.2637 3.89883C29.0528 7.89796 30.5393 12.3575 31.6575 17.1591C31.9732 18.5009 32.21 19.7243 32.4073 20.9083C32.4994 21.474 32.5915 22.0791 32.6836 22.8816L32.6967 23.0263C32.7625 23.4998 32.8151 23.9866 32.7493 24.447C32.6967 24.8022 32.5783 25.0258 32.3942 25.1179C32.2889 25.1705 32.1574 25.1968 31.9995 25.1837C31.8022 23.342 31.3944 21.4871 31.0392 19.8427C30.5525 17.5932 30.0657 15.5674 29.5527 13.6862C29.2501 12.5812 28.8686 11.4893 28.4871 10.3843L28.4477 10.279C27.7899 8.39786 27.1716 6.71401 26.5665 5.16172L26.3034 4.50396C25.8693 3.38578 25.422 2.22814 24.8169 1.18889C25.001 1.10996 25.172 1.0705 25.3299 1.05734C25.7509 1.03103 25.9745 1.38622 26.3034 1.97819L26.3428 2.01766ZM20.7125 22.2764C19.2786 22.0396 17.7526 21.9081 16.1871 21.9081C15.24 21.9081 14.2665 21.9476 13.2799 22.0396C12.8326 22.0791 12.3459 22.1317 11.8065 22.1975C11.0567 19.6586 10.1884 16.6724 9.42545 13.6336C13.8324 11.5945 17.5027 8.17422 20.8177 4.78022C21.1466 4.43819 21.4755 4.10931 21.8044 3.75413C22.0806 3.46471 22.3569 3.1753 22.6331 2.89905C23.0146 2.51755 23.383 2.13605 23.7908 1.80718C23.8302 1.78087 23.8697 1.7414 23.896 1.71509C24.3959 2.58333 24.7642 3.53049 25.1326 4.4645L25.3299 4.95123C25.935 6.47722 26.5402 8.08214 27.2242 10.0291L27.3821 10.4632C27.7241 11.4367 28.0793 12.4365 28.3687 13.4362C28.9081 15.2911 29.3685 17.238 29.7763 19.0666L29.8026 19.2113C30.2236 21.0793 30.6577 23 30.8813 24.9074C29.6053 24.5786 28.3687 24.2365 27.2242 23.9077L26.6454 23.7366C24.7379 23.1973 22.7384 22.6185 20.7125 22.2764ZM1.11146 17.8037C1.04569 17.2117 0.953604 16.4093 1.28248 16.0409C1.5982 15.6989 2.21649 15.5674 2.80847 15.4227C2.95317 15.3832 3.09788 15.3569 3.22943 15.3174C4.88696 14.8701 6.63658 14.4229 8.41251 13.9888C9.16235 16.9618 10.0043 19.8822 10.741 22.3948C9.21497 22.7895 7.64952 23.1447 6.11038 23.4341C5.70258 23.513 5.29477 23.5919 4.88696 23.6577C4.79488 23.6709 4.70279 23.6972 4.5844 23.7235C4.3213 23.7761 3.88718 23.8813 3.75563 23.7629C3.28205 23.342 2.8874 22.7237 2.53221 22.1186C1.78237 20.8557 1.29564 19.4218 1.12462 17.9616L1.11146 17.8037Z" fill="black"/>
</svg>
