<svg width="33" height="40" viewBox="0 0 33 40" fill="none" xmlns="http://www.w3.org/2000/svg">
<path d="M19.1113 4.66083H13.6561V9.71401H19.1113V4.66083Z" fill="#D5F5FB"/>
<path d="M19.9239 10.5266H12.8436V3.84827H19.9239V10.5266ZM14.4688 8.90145H18.2988V5.47343H14.4688V8.90145Z" fill="black"/>
<path d="M16.4129 39.1873C25.0288 39.1873 32.0134 32.2027 32.0134 23.5868C32.0134 14.9709 25.0288 7.98627 16.4129 7.98627C7.79697 7.98627 0.812378 14.9709 0.812378 23.5868C0.812378 32.2027 7.79697 39.1873 16.4129 39.1873Z" fill="#5DDEF5"/>
<path d="M16.4131 39.9999C7.36309 39.9999 0 32.6368 0 23.5868C0 14.5368 7.36309 7.17371 16.4131 7.17371C25.4631 7.17371 32.8262 14.5368 32.8262 23.5868C32.8262 32.6368 25.4631 39.9999 16.4131 39.9999ZM16.4131 8.79887C8.2591 8.79887 1.62517 15.4328 1.62517 23.5868C1.62517 31.7408 8.2591 38.3747 16.4131 38.3747C24.5671 38.3747 31.201 31.7408 31.201 23.5868C31.201 15.4328 24.5671 8.79887 16.4131 8.79887Z" fill="black"/>
<path d="M16.4136 35.3372C22.9036 35.3372 28.1647 30.0761 28.1647 23.5862C28.1647 17.0963 22.9036 11.8351 16.4136 11.8351C9.92372 11.8351 4.6626 17.0963 4.6626 23.5862C4.6626 30.0761 9.92372 35.3372 16.4136 35.3372Z" fill="white"/>
<path d="M16.4135 36.1498C9.48593 36.1498 3.84985 30.5138 3.84985 23.5862C3.84985 16.6587 9.48593 11.0226 16.4135 11.0226C23.341 11.0226 28.9771 16.6587 28.9771 23.5862C28.9771 30.5138 23.341 36.1498 16.4135 36.1498ZM16.4135 12.6477C10.3819 12.6477 5.47502 17.5547 5.47502 23.5862C5.47502 29.6177 10.3819 34.5247 16.4135 34.5247C22.445 34.5247 27.3519 29.6177 27.3519 23.5862C27.3519 17.5547 22.445 12.6477 16.4135 12.6477Z" fill="black"/>
<path d="M8.44279 24.2981H7.67355C7.225 24.2981 6.86096 23.9341 6.86096 23.4856C6.86096 23.037 7.225 22.673 7.67355 22.673H8.44279C8.89134 22.673 9.25537 23.037 9.25537 23.4856C9.25537 23.9341 8.89134 24.2981 8.44279 24.2981Z" fill="black"/>
<path d="M25.0857 24.2981H24.3165C23.8679 24.2981 23.5039 23.9341 23.5039 23.4856C23.5039 23.037 23.8679 22.673 24.3165 22.673H25.0857C25.5343 22.673 25.8983 23.037 25.8983 23.4856C25.8983 23.9341 25.5343 24.2981 25.0857 24.2981Z" fill="black"/>
<path d="M16.379 33.0055C15.9304 33.0055 15.5664 32.6415 15.5664 32.1929V31.4237C15.5664 30.9751 15.9304 30.6111 16.379 30.6111C16.8275 30.6111 17.1916 30.9751 17.1916 31.4237V32.1929C17.1916 32.6425 16.8286 33.0055 16.379 33.0055Z" fill="black"/>
<path d="M16.379 16.3635C15.9304 16.3635 15.5664 15.9995 15.5664 15.5509V14.7817C15.5664 14.3332 15.9304 13.9691 16.379 13.9691C16.8275 13.9691 17.1916 14.3332 17.1916 14.7817V15.5509C17.1916 15.9995 16.8286 16.3635 16.379 16.3635Z" fill="black"/>
<path d="M21.1819 2.73682C21.1819 1.67829 20.3043 0.812622 19.2317 0.812622H13.5815C12.5089 0.812622 11.6313 1.67829 11.6313 2.73682C11.6313 3.79535 12.5089 4.66102 13.5815 4.66102H19.2317C20.3043 4.66102 21.1819 3.79535 21.1819 2.73682Z" fill="#FF7480"/>
<path d="M19.2314 5.47356H13.5813C12.0579 5.47356 10.8185 4.24602 10.8185 2.73678C10.8185 1.22754 12.0579 0 13.5813 0H19.2314C20.7548 0 21.9942 1.22754 21.9942 2.73678C21.9942 4.24602 20.7548 5.47356 19.2314 5.47356ZM13.5813 1.62517C12.954 1.62517 12.4436 2.12355 12.4436 2.73678C12.4436 3.35001 12.954 3.8484 13.5813 3.8484H19.2314C19.8587 3.8484 20.369 3.35001 20.369 2.73678C20.369 2.12355 19.8587 1.62517 19.2314 1.62517H13.5813Z" fill="black"/>
<path d="M16.413 24.3991C16.2049 24.3991 15.9958 24.3189 15.8376 24.1596L12.2395 20.5485C11.9232 20.2311 11.9242 19.7164 12.2417 19.399C12.5591 19.0826 13.0738 19.0826 13.3912 19.4012L16.9893 23.0123C17.3057 23.3297 17.3046 23.8444 16.9872 24.1618C16.8279 24.32 16.621 24.3991 16.413 24.3991Z" fill="black"/>
<path d="M16.4134 24.3989C16.2065 24.3989 15.9985 24.3198 15.8403 24.1627C15.5218 23.8463 15.5207 23.3317 15.8371 23.0132L21.6031 17.2189C21.9195 16.9004 22.4341 16.8993 22.7527 17.2157C23.0712 17.532 23.0723 18.0467 22.7559 18.3652L16.9898 24.1595C16.8306 24.3187 16.6225 24.3989 16.4134 24.3989Z" fill="black"/>
<path d="M16.4128 25.295C17.3564 25.295 18.1214 24.53 18.1214 23.5864C18.1214 22.6428 17.3564 21.8778 16.4128 21.8778C15.4692 21.8778 14.7042 22.6428 14.7042 23.5864C14.7042 24.53 15.4692 25.295 16.4128 25.295Z" fill="#FF7480"/>
<path d="M16.413 26.1077C15.023 26.1077 13.8918 24.9765 13.8918 23.5865C13.8918 22.1964 15.023 21.0653 16.413 21.0653C17.8031 21.0653 18.9342 22.1964 18.9342 23.5865C18.9342 24.9765 17.8031 26.1077 16.413 26.1077ZM16.413 22.6905C15.919 22.6905 15.517 23.0924 15.517 23.5865C15.517 24.0805 15.919 24.4825 16.413 24.4825C16.9071 24.4825 17.309 24.0805 17.309 23.5865C17.309 23.0924 16.9071 22.6905 16.413 22.6905Z" fill="black"/>
</svg>
