<svg width="38" height="40" viewBox="0 0 38 40" fill="none" xmlns="http://www.w3.org/2000/svg">
<path d="M2.77301 23.2415C2.22995 21.2979 2.10133 19.2972 2.12991 17.2964C2.12991 16.6962 2.54435 16.7248 2.9445 16.6962C4.78804 16.5533 6.54583 16.096 8.1893 15.2671C8.71806 14.9956 9.23254 14.6955 9.71844 14.3811C10.0757 14.1524 10.3472 14.1667 10.6902 14.4096C12.6624 15.7816 14.8489 16.539 17.2498 16.6962C18.1644 16.7534 18.193 16.7962 18.1787 17.3679C18.0358 20.812 17.4213 23.7703 15.7778 26.4427C14.4916 28.5292 12.7481 30.144 10.6616 31.4016C10.3044 31.616 10.0043 31.6017 9.64698 31.4302C6.17427 29.6867 3.83054 27.0143 2.77301 23.2415Z" fill="#5DDEF5"/>
<path d="M32.1697 37.5469C26.1103 37.5469 20.0652 37.5183 14.0058 37.5611C12.4624 37.5754 11.3763 37.0324 10.7475 35.6176V33.6597C10.9904 33.6025 11.2334 33.5168 11.462 33.3739C13.6057 32.1591 15.4492 30.5871 16.8926 28.5864C19.2506 25.3423 20.1509 21.6267 20.2938 17.6681C20.2938 17.5395 20.2938 17.3965 20.2938 17.2536C20.2938 15.7245 19.3506 14.6955 17.8215 14.5526C17.2927 14.4955 16.7497 14.4526 16.2209 14.3811C14.6203 14.1239 13.1483 13.4808 11.8193 12.5519C11.4477 12.2947 11.0619 12.1375 10.676 12.0517L10.6617 10.1081C11.119 8.29317 12.4338 7.73582 14.1487 7.79299H16.6639C16.7068 8.79336 17.4356 9.56507 18.436 9.56507C21.8516 9.57936 25.2671 9.57936 28.697 9.56507C29.6973 9.56507 30.4548 8.77907 30.4976 7.79299H32.1411C32.4841 7.82157 32.8128 7.83586 33.1272 7.90732C34.4991 8.22172 35.2422 9.27925 35.2422 11.037C35.2708 18.8685 35.2708 26.7 35.2565 34.5172C35.2565 36.4179 34.0561 37.5469 32.1697 37.5469Z" fill="#FCFCFC"/>
<path d="M37.2573 8.80765C36.5427 6.64971 34.2705 5.17773 32.1411 5.34922H30.3976C30.1689 4.57751 29.5115 4.03445 28.6541 4.02016C28.2968 4.00587 27.9395 4.02016 27.5537 4.02016C27.5394 3.84867 27.5251 3.76292 27.5108 3.66289C27.3536 1.7336 25.8816 0.175881 24.0381 0.01868C21.9516 -0.167103 20.2081 1.04763 19.7365 3.0055C19.6508 3.33419 19.6936 3.8058 19.5078 3.93441C19.2649 4.10591 18.8219 3.99158 18.4646 4.00587C17.6071 4.04874 16.9783 4.57751 16.764 5.34922H13.5056V5.36351C10.676 5.30635 8.38945 7.75011 8.36087 10.1081V12.6519C6.54591 13.7809 4.57375 14.4097 2.4301 14.5669C0.915256 14.6812 -0.0279502 15.6816 0.000631764 17.1822C0.0435048 18.8542 0.0720868 20.5548 0.357907 22.1983C1.21537 27.2002 3.94495 30.8444 8.40374 33.1452V35.6033C8.56094 37.9041 10.8904 39.9763 13.3198 39.9906C19.7365 40.0049 26.1389 40.0049 32.5555 39.9763C33.2558 39.9763 34.0275 39.7762 34.6563 39.4618C36.557 38.5329 37.5717 36.9323 37.586 34.8173C37.6145 26.7857 37.6145 18.7685 37.6003 10.7369C37.6003 10.1081 37.4716 9.42216 37.2573 8.80765ZM23.495 1.83364C24.7669 1.80506 25.7244 2.71968 25.6673 3.99158C24.2525 3.99158 22.8948 3.99158 21.5229 3.99158C21.4086 2.81972 22.3089 1.86222 23.495 1.83364ZM9.64706 31.416C6.17434 29.6868 3.83062 27.0144 2.77309 23.2558C2.23003 21.298 2.10141 19.2972 2.12999 17.2965C2.12999 16.6963 2.54443 16.7249 2.94458 16.6963C4.78812 16.5534 6.54591 16.0961 8.18938 15.2672C8.71814 14.9957 9.23262 14.6955 9.71851 14.3811C10.0758 14.1525 10.3473 14.1668 10.6903 14.4097C12.6625 15.7817 14.849 16.5391 17.2499 16.6963C18.1645 16.7534 18.1931 16.7963 18.1788 17.368C18.0359 20.8121 17.4214 23.7703 15.7779 26.4427C14.4917 28.5292 12.7482 30.1441 10.6617 31.4017C10.3044 31.5875 9.99004 31.5875 9.64706 31.416ZM32.1697 37.5469C26.1103 37.5469 20.0652 37.5183 14.0058 37.5611C12.4624 37.5754 11.3763 37.0324 10.7475 35.6176V33.6597C10.9904 33.6025 11.2334 33.5168 11.462 33.3739C13.6057 32.1591 15.4492 30.5871 16.8926 28.5864C19.2506 25.3423 20.1509 21.6267 20.2939 17.6681C20.2939 17.5394 20.2939 17.3965 20.2939 17.2536C20.2939 15.7245 19.3506 14.6955 17.8215 14.5526C17.2927 14.4955 16.7497 14.4526 16.2209 14.3811C14.6203 14.1239 13.1484 13.4808 11.8193 12.5519C11.4477 12.2947 11.0619 12.1375 10.676 12.0517L10.6617 10.1081C11.119 8.29317 12.4338 7.73582 14.1487 7.79299H16.6639C16.7068 8.79336 17.4357 9.56507 18.436 9.56507C21.8516 9.57936 25.2671 9.57936 28.697 9.56507C29.6973 9.56507 30.4548 8.77906 30.4976 7.79299H32.1411C32.4841 7.82157 32.8128 7.83586 33.1272 7.90731C34.4991 8.22172 35.2422 9.27925 35.2422 11.037C35.2708 18.8685 35.2708 26.7 35.2565 34.5172C35.2565 36.4179 34.0561 37.5469 32.1697 37.5469Z" fill="black"/>
<path d="M30.7407 30.9587C26.2533 30.9587 21.7659 30.9587 17.2643 30.9587C17.1071 30.9587 16.907 30.973 16.8069 31.0587C16.221 31.6161 15.6637 32.202 15.0206 32.8451C15.1921 32.8737 15.2635 32.8737 15.3207 32.8737C20.4511 32.8737 25.5959 32.8737 30.7264 32.8737C31.4123 32.8737 31.8268 32.4735 31.8125 31.8876C31.8125 31.3302 31.3981 30.9587 30.7407 30.9587Z" fill="black"/>
<path d="M24.2953 27.5002C26.4246 27.5002 28.554 27.5002 30.6976 27.5002C31.4122 27.5002 31.8123 27.1429 31.8266 26.5427C31.8409 25.9425 31.3979 25.5566 30.6833 25.5566C27.3392 25.5566 23.9809 25.5566 20.6368 25.5709C20.451 25.5709 20.1652 25.6424 20.0937 25.771C19.8079 26.2998 19.5935 26.8571 19.322 27.4859C19.5649 27.5002 19.7364 27.5145 19.9079 27.5145C21.3513 27.5002 22.8233 27.5002 24.2953 27.5002Z" fill="black"/>
<path d="M30.5976 20.1548C28.4683 20.1405 26.3389 20.1548 24.2096 20.1548C23.4236 20.1548 22.6376 20.1405 21.8516 20.1691C21.7086 20.1691 21.4514 20.2977 21.4228 20.412C21.3085 20.9265 21.2513 21.4696 21.1656 22.0841C21.4514 22.0841 21.6658 22.0841 21.8801 22.0841C24.7812 22.0841 27.668 22.0841 30.5691 22.0841C30.7263 22.0841 30.8978 22.0841 31.055 22.0555C31.498 21.984 31.7552 21.6982 31.8124 21.2695C31.8838 20.8408 31.7123 20.4835 31.3265 20.2977C31.0978 20.1977 30.8263 20.1548 30.5976 20.1548Z" fill="black"/>
<path d="M22.1517 16.5962C24.9813 16.5819 27.8109 16.5962 30.6262 16.5819C30.7406 16.5819 30.8406 16.5819 30.9549 16.5676C31.4408 16.5104 31.7838 16.1674 31.8267 15.6958C31.8553 15.2099 31.5837 14.8241 31.1121 14.6955C30.9406 14.6526 30.7548 14.6526 30.5834 14.6526C27.668 14.6526 24.7526 14.6526 21.8373 14.6526C21.5514 14.6526 21.2799 14.6526 20.9798 14.6526C21.1656 15.1671 21.3942 15.6244 21.5086 16.096C21.58 16.5104 21.7658 16.5962 22.1517 16.5962Z" fill="black"/>
<path d="M14.7061 20.026C14.7061 20.026 14.7204 20.0117 14.7347 20.0117C14.8776 19.7974 15.1063 19.4258 14.8919 19.24C14.6775 19.0542 14.2345 19.3115 14.2345 19.3115V19.3257C13.8486 19.5115 13.4771 19.7259 13.1484 19.9688C11.6621 21.0835 10.1759 22.2125 8.71817 23.3558C8.40377 23.5988 8.21799 23.6273 7.90359 23.3558C7.48915 22.9985 7.03183 22.6698 6.58881 22.3554C6.57452 22.3412 6.57452 22.3126 6.54594 22.2983C6.04576 21.7552 5.85997 21.8553 5.45982 22.0125C5.05968 22.1697 5.44553 22.8128 5.44553 22.8128C5.44553 22.8128 6.23154 24.2704 7.26049 25.9996C7.27478 26.0139 7.28907 26.0282 7.28907 26.0425C7.30336 26.0568 7.31765 26.0854 7.31765 26.0997C7.31765 26.114 7.33195 26.114 7.34624 26.1283C7.63206 26.5284 7.91788 26.6856 8.21799 26.6713C8.23228 26.6856 8.24657 26.6856 8.26086 26.6999C8.27515 26.6856 8.28944 26.6856 8.30373 26.6713C9.03257 26.5856 9.66138 25.6281 9.66138 25.6281C11.2334 23.956 12.7911 22.2554 14.3345 20.5691C14.4632 20.4119 14.5918 20.2261 14.7061 20.026Z" fill="black"/>
<path d="M23.495 1.83366C24.7669 1.80508 25.7244 2.7197 25.6673 3.9916C24.2525 3.9916 22.8948 3.9916 21.5229 3.9916C21.4086 2.81974 22.3089 1.86224 23.495 1.83366Z" fill="#FF7480"/>
</svg>
